<svg width="34" height="34" viewBox="0 0 34 34" fill="none" xmlns="http://www.w3.org/2000/svg">
<path fill-rule="evenodd" clip-rule="evenodd" d="M12.75 7.08333C12.75 6.33189 13.0485 5.61122 13.5799 5.07986C14.1112 4.54851 14.8319 4.25 15.5833 4.25H18.4167C19.1681 4.25 19.8888 4.54851 20.4201 5.07986C20.9515 5.61122 21.25 6.33189 21.25 7.08333V12.75H26.9167C27.6681 12.75 28.3888 13.0485 28.9201 13.5799C29.4515 14.1112 29.75 14.8319 29.75 15.5833V18.4167C29.75 19.1681 29.4515 19.8888 28.9201 20.4201C28.3888 20.9515 27.6681 21.25 26.9167 21.25H21.25V26.9167C21.25 27.6681 20.9515 28.3888 20.4201 28.9201C19.8888 29.4515 19.1681 29.75 18.4167 29.75H15.5833C14.8319 29.75 14.1112 29.4515 13.5799 28.9201C13.0485 28.3888 12.75 27.6681 12.75 26.9167V21.25H7.08333C6.33189 21.25 5.61122 20.9515 5.07986 20.4201C4.54851 19.8888 4.25 19.1681 4.25 18.4167V15.5833C4.25 14.8319 4.54851 14.1112 5.07986 13.5799C5.61122 13.0485 6.33189 12.75 7.08333 12.75H12.75V7.08333Z" fill="#023047"/>
</svg>
