<svg width="22" height="22" viewBox="0 0 22 22" fill="none" xmlns="http://www.w3.org/2000/svg">
<path d="M11.6873 7.56243C11.6873 7.3801 11.6149 7.20523 11.486 7.0763C11.3571 6.94737 11.1822 6.87494 10.9998 6.87494C10.8175 6.87494 10.6426 6.94737 10.5137 7.0763C10.3848 7.20523 10.3124 7.3801 10.3124 7.56243V12.1852L8.34749 15.4576C8.25359 15.6141 8.22568 15.8014 8.2699 15.9784C8.31413 16.1555 8.42686 16.3077 8.5833 16.4016C8.73975 16.4955 8.92709 16.5234 9.10411 16.4791C9.28113 16.4349 9.43333 16.3222 9.52723 16.1657L11.5897 12.7283C11.6536 12.6215 11.6874 12.4994 11.6873 12.3749V7.56243Z" fill="#BFAADA"/>
<path d="M8.93744 0C8.7551 0 8.58024 0.0724323 8.4513 0.201363C8.32237 0.330293 8.24994 0.50516 8.24994 0.687495C8.24994 0.86983 8.32237 1.0447 8.4513 1.17363C8.58024 1.30256 8.7551 1.37499 8.93744 1.37499H9.62493V2.84623C7.75257 3.11674 6.00142 3.93294 4.59024 5.19289C3.17905 6.45283 2.17039 8.10066 1.69026 9.93051C1.21014 11.7604 1.27982 13.6911 1.89062 15.4816C2.50142 17.2721 3.62624 18.8429 5.12459 19.9979L4.29684 20.8256C4.16775 20.9545 4.09516 21.1294 4.09503 21.3119C4.0949 21.4943 4.16725 21.6693 4.29616 21.7984C4.42507 21.9275 4.59998 22.0001 4.78242 22.0002C4.96485 22.0004 5.13987 21.928 5.26896 21.7991L6.29471 20.7734C7.73159 21.5799 9.35216 22.0023 10.9999 21.9998C12.6477 22.0023 14.2683 21.5799 15.7051 20.7734L16.7309 21.7991C16.86 21.928 17.035 22.0004 17.2174 22.0002C17.3999 22.0001 17.5748 21.9275 17.7037 21.7984C17.8326 21.6693 17.9049 21.4943 17.9048 21.3119C17.9047 21.1294 17.8321 20.9545 17.703 20.8256L16.8766 19.9979C18.375 18.8428 19.4998 17.2719 20.1105 15.4813C20.7213 13.6907 20.7908 11.7599 20.3106 9.92998C19.8303 8.10009 18.8214 6.45228 17.4101 5.19242C15.9987 3.93257 14.2474 3.11652 12.3749 2.84623V1.37499H13.0624C13.2447 1.37499 13.4196 1.30256 13.5485 1.17363C13.6775 1.0447 13.7499 0.86983 13.7499 0.687495C13.7499 0.50516 13.6775 0.330293 13.5485 0.201363C13.4196 0.0724323 13.2447 0 13.0624 0L8.93744 0ZM10.3647 4.14972C10.7875 4.11706 11.2123 4.11706 11.6352 4.14972C13.7618 4.31396 15.7422 5.29549 17.1608 6.88836C18.5794 8.48123 19.3259 10.5616 19.2437 12.693C19.1616 14.8244 18.2571 16.8412 16.72 18.3201C15.183 19.799 13.1329 20.6251 10.9999 20.6251C8.86694 20.6251 6.81685 19.799 5.27982 18.3201C3.74279 16.8412 2.83829 14.8244 2.75611 12.693C2.67393 10.5616 3.42045 8.48123 4.83904 6.88836C6.25763 5.29549 8.23802 4.31396 10.3647 4.14972ZM3.48268e-09 4.81247C3.48268e-09 5.84783 0.457872 6.77733 1.18249 7.40707C2.24403 5.3173 3.94231 3.61902 6.03208 2.55748C5.57267 2.02884 4.96274 1.65314 4.28393 1.48068C3.60512 1.30822 2.88983 1.34722 2.2338 1.59247C1.57776 1.83771 1.0123 2.2775 0.613086 2.85296C0.213874 3.42842 -3.15152e-05 4.11209 3.48268e-09 4.81247ZM18.5624 1.37499C17.527 1.37499 16.5975 1.83286 15.9678 2.55748C18.0575 3.61902 19.7558 5.3173 20.8174 7.40707C21.346 6.94766 21.7217 6.33773 21.8942 5.65892C22.0666 4.98011 22.0276 4.26482 21.7824 3.60879C21.5371 2.95275 21.0973 2.38729 20.5219 1.98808C19.9464 1.58886 19.2627 1.37496 18.5624 1.37499Z" fill="#BFAADA"/>
</svg>
