<svg width="73" height="29" viewBox="0 0 73 29" fill="none" xmlns="http://www.w3.org/2000/svg">
<g filter="url(#filter0_d_142_1684)">
<path d="M16.0771 4.48C16.0771 5.5 15.7171 6.382 14.9971 7.126C14.2771 7.858 13.2271 8.386 11.8471 8.71C12.5911 8.914 13.1551 9.25 13.5391 9.718C13.9231 10.174 14.1151 10.702 14.1151 11.302C14.1151 12.25 13.8151 13.072 13.2151 13.768C12.6271 14.464 11.7631 15.004 10.6231 15.388C9.48313 15.76 8.10913 15.946 6.50113 15.946C5.90113 15.946 5.42113 15.928 5.06113 15.892C5.04913 16.228 4.90513 16.48 4.62913 16.648C4.35313 16.816 3.99913 16.9 3.56713 16.9C3.13513 16.9 2.83513 16.804 2.66713 16.612C2.51113 16.42 2.44513 16.138 2.46913 15.766C2.57713 14.086 2.78713 12.328 3.09912 10.492C3.41113 8.644 3.80713 6.862 4.28713 5.146C4.37113 4.846 4.53913 4.636 4.79113 4.516C5.04313 4.396 5.37313 4.336 5.78113 4.336C6.51313 4.336 6.87913 4.54 6.87913 4.948C6.87913 5.116 6.84313 5.308 6.77113 5.524C6.45913 6.46 6.14713 7.732 5.83513 9.34C5.52313 10.936 5.30113 12.46 5.16913 13.912C5.74513 13.96 6.21313 13.984 6.57313 13.984C8.25313 13.984 9.48313 13.744 10.2631 13.264C11.0551 12.772 11.4511 12.148 11.4511 11.392C11.4511 10.864 11.2231 10.42 10.7671 10.06C10.3231 9.7 9.57313 9.502 8.51713 9.466C8.27713 9.454 8.10913 9.394 8.01313 9.286C7.91713 9.178 7.86913 9.004 7.86913 8.764C7.86913 8.416 7.94113 8.134 8.08513 7.918C8.22913 7.702 8.49313 7.588 8.87713 7.576C9.72913 7.552 10.4971 7.426 11.1811 7.198C11.8771 6.97 12.4231 6.652 12.8191 6.244C13.2151 5.824 13.4131 5.338 13.4131 4.786C13.4131 4.09 13.0711 3.544 12.3871 3.148C11.7031 2.74 10.6531 2.536 9.23713 2.536C7.95313 2.536 6.71113 2.704 5.51113 3.04C4.31113 3.364 3.29113 3.778 2.45113 4.282C2.06713 4.51 1.74313 4.624 1.47913 4.624C1.26313 4.624 1.09513 4.552 0.975125 4.408C0.867125 4.252 0.813125 4.06 0.813125 3.832C0.813125 3.532 0.873125 3.274 0.993125 3.058C1.12513 2.842 1.43113 2.596 1.91113 2.32C2.91913 1.744 4.10113 1.294 5.45713 0.969999C6.81313 0.645999 8.19913 0.483999 9.61513 0.483999C11.7871 0.483999 13.4071 0.849999 14.4751 1.582C15.5431 2.314 16.0771 3.28 16.0771 4.48ZM25.0702 12.022C25.2262 12.022 25.3462 12.1 25.4302 12.256C25.5262 12.4 25.5742 12.586 25.5742 12.814C25.5742 13.09 25.5322 13.306 25.4482 13.462C25.3642 13.618 25.2322 13.756 25.0522 13.876L21.5962 16.198C21.1402 18.682 20.5402 20.632 19.7962 22.048C19.0642 23.476 18.1282 24.19 16.9882 24.19C16.3762 24.19 15.8782 23.998 15.4942 23.614C15.1102 23.242 14.9182 22.75 14.9182 22.138C14.9182 21.574 15.0442 20.998 15.2962 20.41C15.5602 19.822 16.0402 19.144 16.7362 18.376C17.4442 17.62 18.4402 16.75 19.7242 15.766L19.7782 15.352C19.8622 14.908 19.9582 14.272 20.0662 13.444C19.8262 14.308 19.4902 14.968 19.0582 15.424C18.6262 15.868 18.1702 16.09 17.6902 16.09C17.1502 16.09 16.7062 15.844 16.3582 15.352C16.0222 14.848 15.8542 14.224 15.8542 13.48C15.8542 12.58 15.9142 11.758 16.0342 11.014C16.1542 10.258 16.3522 9.46 16.6282 8.62C16.7482 8.26 16.9162 8.002 17.1322 7.846C17.3482 7.69 17.6902 7.612 18.1582 7.612C18.4222 7.612 18.6022 7.654 18.6982 7.738C18.8062 7.822 18.8602 7.948 18.8602 8.116C18.8602 8.212 18.7942 8.536 18.6622 9.088C18.5422 9.532 18.4462 9.934 18.3742 10.294C18.2782 10.786 18.1942 11.26 18.1222 11.716C18.0502 12.16 18.0142 12.526 18.0142 12.814C18.0142 13.27 18.1402 13.498 18.3922 13.498C18.5722 13.498 18.7942 13.318 19.0582 12.958C19.3342 12.598 19.6222 12.052 19.9222 11.32C20.2342 10.588 20.5342 9.688 20.8222 8.62C20.9182 8.26 21.0622 8.002 21.2542 7.846C21.4582 7.69 21.7582 7.612 22.1542 7.612C22.4302 7.612 22.6222 7.648 22.7302 7.72C22.8382 7.792 22.8922 7.912 22.8922 8.08C22.8922 8.38 22.7362 9.412 22.4242 11.176L21.9562 14.074C22.8802 13.378 23.7802 12.742 24.6562 12.166C24.8122 12.07 24.9502 12.022 25.0702 12.022ZM17.1862 22.444C17.4862 22.444 17.8222 22.096 18.1942 21.4C18.5662 20.704 18.9382 19.546 19.3102 17.926C18.3862 18.706 17.7142 19.414 17.2942 20.05C16.8862 20.698 16.6822 21.262 16.6822 21.742C16.6822 21.946 16.7182 22.114 16.7902 22.246C16.8742 22.378 17.0062 22.444 17.1862 22.444ZM30.4435 16.09C29.3755 16.09 28.4095 15.85 27.5455 15.37C26.6935 14.89 26.0155 14.188 25.5115 13.264C25.0075 12.328 24.7555 11.212 24.7555 9.916C24.7555 8.092 25.0855 6.484 25.7455 5.092C26.4175 3.7 27.3235 2.626 28.4635 1.87C29.6155 1.114 30.8875 0.735999 32.2795 0.735999C33.3475 0.735999 34.3075 0.975999 35.1595 1.456C36.0235 1.936 36.7075 2.644 37.2115 3.58C37.7155 4.504 37.9675 5.614 37.9675 6.91C37.9675 8.734 37.6315 10.342 36.9595 11.734C36.2995 13.126 35.3935 14.2 34.2415 14.956C33.1015 15.712 31.8355 16.09 30.4435 16.09ZM30.6235 13.966C31.5595 13.966 32.3815 13.678 33.0895 13.102C33.8095 12.526 34.3615 11.728 34.7455 10.708C35.1295 9.676 35.3215 8.512 35.3215 7.216C35.3215 5.788 35.0215 4.708 34.4215 3.976C33.8215 3.232 33.0475 2.86 32.0995 2.86C31.1755 2.86 30.3595 3.148 29.6515 3.724C28.9435 4.288 28.3915 5.086 27.9955 6.118C27.5995 7.138 27.4015 8.302 27.4015 9.61C27.4015 11.038 27.7015 12.124 28.3015 12.868C28.9015 13.6 29.6755 13.966 30.6235 13.966ZM42.4748 16.09C42.0308 16.09 41.7128 15.994 41.5208 15.802C41.3288 15.598 41.2328 15.22 41.2328 14.668C41.2328 14.296 41.2688 13.846 41.3408 13.318C41.4128 12.79 41.5388 11.992 41.7188 10.924C41.7428 10.78 41.8388 10.198 42.0068 9.178C42.1748 8.146 42.3248 7.066 42.4568 5.938C42.5768 4.978 42.6368 4.258 42.6368 3.778C42.6368 3.238 42.4388 2.968 42.0428 2.968C41.7428 2.968 41.3648 3.13 40.9088 3.454C40.4648 3.766 39.9848 4.27 39.4688 4.966C39.3008 5.194 39.1148 5.308 38.9108 5.308C38.7428 5.308 38.5928 5.23 38.4608 5.074C38.3408 4.906 38.2808 4.72 38.2808 4.516C38.2808 4.312 38.3168 4.12 38.3888 3.94C38.4608 3.748 38.5928 3.52 38.7848 3.256C39.3728 2.452 40.0268 1.834 40.7468 1.402C41.4668 0.957999 42.2228 0.735999 43.0148 0.735999C43.6748 0.735999 44.1668 0.939999 44.4908 1.348C44.8268 1.756 44.9948 2.35 44.9948 3.13C44.9948 3.826 44.8988 4.834 44.7068 6.154C45.3068 4.378 46.0688 3.034 46.9928 2.122C47.9168 1.198 49.0028 0.735999 50.2508 0.735999C51.2348 0.735999 51.9728 1.018 52.4648 1.582C52.9688 2.134 53.2208 2.878 53.2208 3.814C53.2208 4.342 53.1428 4.984 52.9868 5.74L51.8888 10.888C51.7688 11.488 51.7088 12.004 51.7088 12.436C51.7088 12.94 51.8228 13.318 52.0508 13.57C52.2908 13.822 52.6208 13.948 53.0408 13.948C53.4368 13.948 53.8208 13.816 54.1928 13.552C54.5768 13.288 55.0268 12.85 55.5428 12.238C55.6868 12.07 55.8488 11.986 56.0288 11.986C56.1848 11.986 56.3048 12.058 56.3888 12.202C56.4848 12.346 56.5328 12.544 56.5328 12.796C56.5328 13.264 56.4188 13.636 56.1908 13.912C55.5668 14.668 54.9488 15.22 54.3368 15.568C53.7248 15.916 53.0828 16.09 52.4108 16.09C51.3908 16.09 50.5928 15.79 50.0168 15.19C49.4408 14.578 49.1528 13.762 49.1528 12.742C49.1528 12.346 49.1828 11.914 49.2428 11.446C49.3148 10.978 49.4288 10.384 49.5848 9.664L50.3048 6.37C50.3288 6.262 50.3708 6.07 50.4308 5.794C50.4908 5.518 50.5388 5.26 50.5748 5.02C50.6108 4.768 50.6288 4.522 50.6288 4.282C50.6288 3.898 50.5208 3.592 50.3048 3.364C50.0888 3.136 49.7828 3.022 49.3868 3.022C48.6668 3.022 47.9468 3.406 47.2268 4.174C46.5068 4.942 45.8408 6.184 45.2288 7.9C44.6168 9.604 44.1368 11.788 43.7888 14.452C43.7048 15.064 43.5788 15.49 43.4108 15.73C43.2548 15.97 42.9428 16.09 42.4748 16.09ZM67.797 12.724C67.977 12.652 68.127 12.616 68.247 12.616C68.439 12.616 68.583 12.688 68.679 12.832C68.775 12.976 68.823 13.162 68.823 13.39C68.823 13.75 68.733 14.056 68.553 14.308C68.385 14.56 68.091 14.788 67.671 14.992C66.963 15.328 66.045 15.598 64.917 15.802C63.789 15.994 62.679 16.09 61.587 16.09C60.075 16.09 58.809 15.922 57.789 15.586C56.769 15.238 56.007 14.764 55.503 14.164C55.011 13.564 54.765 12.886 54.765 12.13C54.765 11.098 55.095 10.222 55.755 9.502C56.427 8.77 57.411 8.242 58.707 7.918C57.999 7.714 57.453 7.354 57.069 6.838C56.697 6.322 56.511 5.746 56.511 5.11C56.511 4.246 56.781 3.484 57.321 2.824C57.873 2.152 58.611 1.636 59.535 1.276C60.459 0.915999 61.473 0.735999 62.577 0.735999C64.065 0.735999 65.181 1.06 65.925 1.708C66.669 2.344 67.041 3.172 67.041 4.192C67.041 4.9 66.909 5.476 66.645 5.92C66.393 6.352 66.027 6.568 65.547 6.568C65.211 6.568 64.947 6.496 64.755 6.352C64.563 6.196 64.467 5.968 64.467 5.668C64.467 5.464 64.497 5.242 64.557 5.002C64.617 4.606 64.647 4.336 64.647 4.192C64.647 3.76 64.485 3.412 64.161 3.148C63.837 2.872 63.297 2.734 62.541 2.734C61.521 2.734 60.705 2.95 60.093 3.382C59.481 3.814 59.175 4.396 59.175 5.128C59.175 5.692 59.403 6.16 59.859 6.532C60.327 6.892 61.083 7.09 62.127 7.126C62.391 7.138 62.577 7.198 62.685 7.306C62.793 7.414 62.847 7.594 62.847 7.846C62.847 8.638 62.487 9.04 61.767 9.052C60.771 9.076 59.943 9.214 59.283 9.466C58.635 9.718 58.161 10.042 57.861 10.438C57.573 10.822 57.429 11.236 57.429 11.68C57.429 12.424 57.777 12.988 58.473 13.372C59.169 13.744 60.273 13.93 61.785 13.93C62.781 13.93 63.831 13.816 64.935 13.588C66.051 13.348 67.005 13.06 67.797 12.724Z" fill="#F7B267"/>
</g>
<defs>
<filter id="filter0_d_142_1684" x="0.81311" y="0.483994" width="72.0099" height="27.706" filterUnits="userSpaceOnUse" color-interpolation-filters="sRGB">
<feFlood flood-opacity="0" result="BackgroundImageFix"/>
<feColorMatrix in="SourceAlpha" type="matrix" values="0 0 0 0 0 0 0 0 0 0 0 0 0 0 0 0 0 0 127 0" result="hardAlpha"/>
<feOffset dx="2" dy="2"/>
<feGaussianBlur stdDeviation="1"/>
<feComposite in2="hardAlpha" operator="out"/>
<feColorMatrix type="matrix" values="0 0 0 0 0.972549 0 0 0 0 0.976471 0 0 0 0 0.980392 0 0 0 0.25 0"/>
<feBlend mode="normal" in2="BackgroundImageFix" result="effect1_dropShadow_142_1684"/>
<feBlend mode="normal" in="SourceGraphic" in2="effect1_dropShadow_142_1684" result="shape"/>
</filter>
</defs>
</svg>
