<svg width="20" height="16" viewBox="0 0 20 16" fill="none" xmlns="http://www.w3.org/2000/svg">
<path d="M1.50827 6.20874L0.754133 6.9779L0 6.20874L0.754133 5.43959L1.50827 6.20874ZM19.6416 14.9121C19.6416 15.2006 19.5292 15.4773 19.3292 15.6814C19.1291 15.8854 18.8578 16 18.5749 16C18.292 16 18.0207 15.8854 17.8207 15.6814C17.6206 15.4773 17.5083 15.2006 17.5083 14.9121H19.6416ZM6.08747 12.4175L0.754133 6.9779L2.2624 5.43959L7.59573 10.8792L6.08747 12.4175ZM0.754133 5.43959L6.08747 0L7.59573 1.53831L2.2624 6.9779L0.754133 5.43959ZM1.50827 5.12083H12.1749V7.29666H1.50827V5.12083ZM19.6416 12.7362V14.9121H17.5083V12.7362H19.6416ZM12.1749 5.12083C14.1552 5.12083 16.0544 5.92316 17.4547 7.35133C18.8549 8.7795 19.6416 10.7165 19.6416 12.7362H17.5083C17.5083 11.2936 16.9464 9.91 15.9462 8.88988C14.946 7.86976 13.5894 7.29666 12.1749 7.29666V5.12083Z" fill="#CED4DA"/>
</svg>
