<svg width="14" height="14" viewBox="0 0 14 14" fill="none" xmlns="http://www.w3.org/2000/svg">
<path d="M6.4923 5.43924e-05C4.81936 0.0107962 3.22012 0.857452 2.01869 2.13496C0.442008 3.81145 -0.399631 6.20466 0.217669 8.3349C0.699575 8.0753 1.18434 7.86312 1.66179 7.70415C1.47508 4.06964 4.29552 1.47974 7.56477 1.4968C7.69034 1.10239 7.86779 0.690924 8.09971 0.261075C7.61801 0.100833 7.13366 0.014367 6.65458 0.00191354C6.60049 0.000526552 6.54628 -0.000270239 6.49227 8.38866e-05L6.4923 5.43924e-05ZM7.41262 2.04737C4.53369 2.09887 2.1033 4.32263 2.20777 7.54547C2.53197 7.46491 2.85074 7.41025 3.16037 7.38505C3.59092 7.35002 4.00702 7.37139 4.3934 7.45697L7.62014 4.23026C7.46224 3.86808 7.36892 3.48107 7.34439 3.08673C7.32326 2.75456 7.34852 2.40849 7.42088 2.04737H7.41262ZM9.20818 3.83919L8.71019 4.33718L9.61026 5.23539L10.1064 4.73923L9.20818 3.83919ZM8.11261 4.51793L4.58979 8.04074L5.9067 9.35579L9.42768 5.83481L8.11261 4.51793ZM13.7159 5.87816C13.289 6.10857 12.8802 6.28561 12.4884 6.41123C12.5106 9.68728 9.91387 12.514 6.27101 12.3216C6.11194 12.7968 5.90059 13.2796 5.64205 13.7593C7.77241 14.3768 10.1664 13.5351 11.843 11.9583C13.5264 10.3751 14.4551 8.10071 13.716 5.87819L13.7159 5.87816ZM9.70248 6.3402L6.5098 9.53285C6.60512 9.9331 6.63038 10.3664 6.59373 10.8157C6.56829 11.1279 6.51252 11.4494 6.43054 11.7765C9.66444 11.8863 11.8938 9.44497 11.937 6.55598C11.5728 6.62994 11.224 6.65641 10.8894 6.63531C10.4678 6.60875 10.072 6.50703 9.70248 6.3402ZM4.40904 8.63833L0 13.0474V14H0.845652L5.30728 9.53837L4.40904 8.63833Z" fill="#7678ED"/>
</svg>
