<svg width="20" height="20" viewBox="0 0 20 20" fill="none" xmlns="http://www.w3.org/2000/svg">
<path d="M9.85702 0.906748C9.79995 0.617074 9.62408 0.360804 9.36811 0.194314C9.11215 0.0278238 8.79704 -0.0352478 8.49212 0.018974C8.18721 0.0731958 7.91745 0.240269 7.7422 0.483441C7.56695 0.726612 7.50056 1.02596 7.55763 1.31564L7.93774 3.24896C6.73647 3.83608 5.76797 4.7774 5.17752 5.93171C4.58707 7.08603 4.40651 8.3911 4.66292 9.65115L4.98573 11.2878L5.05005 11.6167C5.3518 13.1434 4.78339 14.13 4.31322 14.9478C3.97989 15.5256 3.69685 16.0189 3.80211 16.5578C3.93077 17.2089 4.05942 17.8611 4.6793 17.7511L19.533 15.11C20.1505 14.9989 20.0218 14.3489 19.8932 13.6989C19.7727 13.0723 19.1493 12.4511 18.4955 11.7978C17.7868 11.0911 17.0417 10.3467 16.8534 9.51893C16.5809 8.31338 16.5318 7.97783 16.4991 7.75561C16.4885 7.68561 16.4804 7.62561 16.4663 7.55339C16.2026 6.1664 15.4278 4.91388 14.2807 4.02013C13.1335 3.12637 11.6889 2.64976 10.2056 2.67563L9.85702 0.906748Z" fill="#BFAADA"/>
<path fill-rule="evenodd" clip-rule="evenodd" d="M4.39507 1.42009C4.62482 1.61787 4.76251 1.89424 4.77786 2.18843C4.79321 2.48262 4.68498 2.77057 4.47694 2.98897C3.17286 4.35563 2.4828 5.8834 2.33661 7.72228C2.31334 8.01623 2.16811 8.28936 1.93287 8.48158C1.69763 8.67381 1.39165 8.76938 1.08223 8.74728C0.772816 8.72518 0.485315 8.58721 0.282975 8.36373C0.080635 8.14025 -0.0199687 7.84957 0.00329562 7.55562C0.190428 5.22341 1.08983 3.23008 2.74245 1.49676C2.84564 1.38859 2.97024 1.3008 3.10916 1.23841C3.24807 1.17601 3.39856 1.14023 3.55204 1.13311C3.70551 1.12599 3.85896 1.14767 4.00361 1.19691C4.14826 1.24615 4.28128 1.32199 4.39507 1.42009Z" fill="#BFAADA"/>
<path d="M7.2149 18.5556C8.03361 19.4444 9.20319 20 10.4897 20C12.3611 20 13.8815 18.7778 14.3493 17.2222L7.2149 18.5556Z" fill="#BFAADA"/>
</svg>
