<svg width="13" height="13" viewBox="0 0 13 13" fill="none" xmlns="http://www.w3.org/2000/svg">
<path d="M3.79175 1.62501V2.16668C3.79175 2.45399 3.90588 2.72954 4.10905 2.93271C4.31221 3.13587 4.58776 3.25001 4.87508 3.25001H8.12508C8.4124 3.25001 8.68795 3.13587 8.89111 2.93271C9.09428 2.72954 9.20841 2.45399 9.20841 2.16668V1.62501H9.75008C10.0374 1.62501 10.3129 1.73915 10.5161 1.94231C10.7193 2.14548 10.8334 2.42103 10.8334 2.70834V8.66668C10.8334 9.52863 10.491 10.3553 9.88151 10.9648C9.27202 11.5743 8.44537 11.9167 7.58341 11.9167H3.25008C2.96276 11.9167 2.68721 11.8025 2.48405 11.5994C2.28088 11.3962 2.16675 11.1207 2.16675 10.8333V2.70834C2.16675 2.42103 2.28088 2.14548 2.48405 1.94231C2.68721 1.73915 2.96276 1.62501 3.25008 1.62501H3.79175ZM6.50008 7.58334H4.87508C4.73142 7.58334 4.59365 7.64041 4.49207 7.74199C4.39048 7.84358 4.33341 7.98135 4.33341 8.12501C4.33341 8.26867 4.39048 8.40644 4.49207 8.50803C4.59365 8.60961 4.73142 8.66668 4.87508 8.66668H6.50008C6.64374 8.66668 6.78152 8.60961 6.8831 8.50803C6.98468 8.40644 7.04175 8.26867 7.04175 8.12501C7.04175 7.98135 6.98468 7.84358 6.8831 7.74199C6.78152 7.64041 6.64374 7.58334 6.50008 7.58334ZM8.12508 5.41668H4.87508C4.73702 5.41683 4.60423 5.46969 4.50384 5.56447C4.40345 5.65924 4.34304 5.78878 4.33495 5.9266C4.32686 6.06442 4.3717 6.20013 4.46031 6.306C4.54892 6.41187 4.67461 6.47991 4.81171 6.49622L4.87508 6.50001H8.12508C8.26874 6.50001 8.40651 6.44294 8.5081 6.34136C8.60968 6.23978 8.66675 6.102 8.66675 5.95834C8.66675 5.81468 8.60968 5.67691 8.5081 5.57533C8.40651 5.47374 8.26874 5.41668 8.12508 5.41668ZM7.58341 1.08334C7.72147 1.0835 7.85427 1.13636 7.95466 1.23114C8.05505 1.32591 8.11546 1.45544 8.12355 1.59327C8.13164 1.73109 8.0868 1.8668 7.99819 1.97267C7.90958 2.07854 7.78388 2.14658 7.64679 2.16289L7.58341 2.16668H5.41675C5.27869 2.16652 5.1459 2.11366 5.04551 2.01888C4.94512 1.92411 4.8847 1.79458 4.87661 1.65675C4.86852 1.51893 4.91336 1.38322 5.00197 1.27735C5.09059 1.17148 5.21628 1.10344 5.35337 1.08714L5.41675 1.08334H7.58341Z" fill="#8A8DC4"/>
</svg>
