<svg width="12" height="26" viewBox="0 0 12 26" fill="none" xmlns="http://www.w3.org/2000/svg">
<path d="M5.6875 5.95837C7.03369 5.95837 8.125 4.86707 8.125 3.52087C8.125 2.17468 7.03369 1.08337 5.6875 1.08337C4.34131 1.08337 3.25 2.17468 3.25 3.52087C3.25 4.86707 4.34131 5.95837 5.6875 5.95837Z" fill="#CED4DA"/>
<path d="M5.6875 15.1666C7.03369 15.1666 8.125 14.0753 8.125 12.7291C8.125 11.3829 7.03369 10.2916 5.6875 10.2916C4.34131 10.2916 3.25 11.3829 3.25 12.7291C3.25 14.0753 4.34131 15.1666 5.6875 15.1666Z" fill="#CED4DA"/>
<path d="M5.6875 25.4584C7.03369 25.4584 8.125 24.3671 8.125 23.0209C8.125 21.6747 7.03369 20.5834 5.6875 20.5834C4.34131 20.5834 3.25 21.6747 3.25 23.0209C3.25 24.3671 4.34131 25.4584 5.6875 25.4584Z" fill="#CED4DA"/>
</svg>
