<svg width="15" height="15" viewBox="0 0 15 15" fill="none" xmlns="http://www.w3.org/2000/svg">
<path d="M8.20155 12.666L9.118 14.2107C9.20705 14.3608 9.43714 14.2992 9.43921 14.1247L9.46051 12.3287C9.46918 11.5987 9.37777 10.8711 9.18883 10.166L7.91797 5.42309C7.91628 5.41679 7.91337 5.41089 7.9094 5.40571C7.90543 5.40054 7.90049 5.3962 7.89484 5.39294C7.88919 5.38968 7.88296 5.38756 7.87649 5.38671C7.87003 5.38586 7.86346 5.3863 7.85716 5.38799L6.11975 5.85352C6.09326 5.86062 6.07755 5.88784 6.08465 5.91433L7.35549 10.6572C7.54443 11.3623 7.82909 12.0382 8.20155 12.666Z" fill="#ABBAC1"/>
<path d="M9.22952 5.16238L8.34053 4.64912C8.22331 4.58144 8.08213 4.56636 7.9514 4.6014L7.71644 4.66575L7.32703 3.21511C7.23447 2.86965 7.04389 2.5556 6.76998 2.29567L6.361 1.90782C6.33652 1.88459 6.30762 1.86567 6.27584 1.85079C6.40749 1.71439 6.46643 1.51442 6.4138 1.31798C6.33397 1.02002 6.0277 0.843239 5.72974 0.923062C5.43178 1.00288 5.25495 1.30916 5.33479 1.60713C5.38743 1.80356 5.5385 1.94732 5.72073 1.9996C5.70065 2.02836 5.68518 2.05928 5.67559 2.09163L5.51551 2.63212C5.40829 2.99419 5.40067 3.36169 5.49323 3.70715L5.88215 5.15859L5.65069 5.22277C5.51995 5.25779 5.41103 5.3448 5.34336 5.46202L4.8301 6.35101C4.68918 6.59509 4.76784 6.90436 5.01193 7.04528C5.25601 7.1862 5.56317 7.0997 5.70409 6.85561L6.11165 6.1497L7.06056 5.89747L7.06177 5.89817L7.06217 5.89886L8.0091 5.64594L8.71503 6.05351C8.95911 6.19444 9.27332 6.1072 9.41424 5.86312C9.55517 5.61903 9.47361 5.3033 9.22952 5.16238Z" fill="#F7B267"/>
<path d="M8.20835 9.53764C8.17572 9.51886 8.14712 9.49381 8.12419 9.46394C8.10127 9.43407 8.08448 9.39996 8.07478 9.36357L7.37306 6.74472C7.3321 6.59179 7.42286 6.43459 7.57577 6.39362C7.72871 6.35265 7.88589 6.4434 7.92688 6.59633L8.6286 9.21518C8.66956 9.36811 8.57881 9.5253 8.42589 9.56629C8.38953 9.57608 8.35159 9.57859 8.31426 9.57368C8.27693 9.56876 8.24094 9.55652 8.20835 9.53764Z" fill="#DEE4E7"/>
</svg>
