<svg width="10" height="12" viewBox="0 0 10 12" fill="none" xmlns="http://www.w3.org/2000/svg">
<path d="M8 4H7.42857V2.85714C7.42857 1.28 6.14857 0 4.57143 0C2.99429 0 1.71429 1.28 1.71429 2.85714V4H1.14286C0.514286 4 0 4.51429 0 5.14286V10.8571C0 11.4857 0.514286 12 1.14286 12H8C8.62857 12 9.14286 11.4857 9.14286 10.8571V5.14286C9.14286 4.51429 8.62857 4 8 4ZM4.57143 9.14286C3.94286 9.14286 3.42857 8.62857 3.42857 8C3.42857 7.37143 3.94286 6.85714 4.57143 6.85714C5.2 6.85714 5.71429 7.37143 5.71429 8C5.71429 8.62857 5.2 9.14286 4.57143 9.14286ZM2.85714 4V2.85714C2.85714 1.90857 3.62286 1.14286 4.57143 1.14286C5.52 1.14286 6.28571 1.90857 6.28571 2.85714V4H2.85714Z" fill="#BFAADA"/>
</svg>
