<svg width="20" height="24" viewBox="0 0 20 24" fill="none" xmlns="http://www.w3.org/2000/svg">
<path d="M1.2 24C0.88174 24 0.576516 23.8736 0.351472 23.6485C0.126428 23.4235 0 23.1183 0 22.8V1.2C0 0.88174 0.126428 0.576515 0.351472 0.351472C0.576516 0.126428 0.88174 0 1.2 0H18C18.3183 0 18.6235 0.126428 18.8485 0.351472C19.0736 0.576515 19.2 0.88174 19.2 1.2V22.8C19.2 23.1183 19.0736 23.4235 18.8485 23.6485C18.6235 23.8736 18.3183 24 18 24H1.2ZM13.2 16.8L19.2 12L13.2 7.2V10.8H6V13.2H13.2V16.8Z" fill="#ABBAC1"/>
</svg>
