<svg width="28" height="28" viewBox="0 0 28 28" fill="none" xmlns="http://www.w3.org/2000/svg">
<mask id="mask0_444_498" style="mask-type:luminance" maskUnits="userSpaceOnUse" x="0" y="0" width="28" height="28">
<path d="M21.6116 8.7026C22.3768 9.79861 22.8945 11.0479 23.129 12.3638H26V15.6362H23.129C22.8945 16.9521 22.3768 18.2014 21.6116 19.2974L23.6426 21.3284L21.3284 23.6426L19.2974 21.6116C18.2014 22.3768 16.9521 22.8945 15.6362 23.129V26H12.3638V23.129C11.0479 22.8945 9.79861 22.3768 8.7026 21.6116L6.6716 23.6426L4.3574 21.3284L6.3884 19.2974C5.62324 18.2014 5.10549 16.9521 4.871 15.6362H2V12.3638H4.871C5.10549 11.0479 5.62324 9.79861 6.3884 8.7026L4.3574 6.6716L6.6716 4.3574L8.7026 6.3884C9.79861 5.62324 11.0479 5.10549 12.3638 4.871V2H15.6362V4.871C16.9521 5.10549 18.2014 5.62324 19.2974 6.3884L21.3284 4.3574L23.6426 6.6716L21.6116 8.7026Z" fill="white" stroke="white" stroke-width="4" stroke-linejoin="round"/>
<path d="M14 17C14.7956 17 15.5587 16.6839 16.1213 16.1213C16.6839 15.5587 17 14.7956 17 14C17 13.2044 16.6839 12.4413 16.1213 11.8787C15.5587 11.3161 14.7956 11 14 11C13.2044 11 12.4413 11.3161 11.8787 11.8787C11.3161 12.4413 11 13.2044 11 14C11 14.7956 11.3161 15.5587 11.8787 16.1213C12.4413 16.6839 13.2044 17 14 17Z" fill="black" stroke="black" stroke-width="4" stroke-linejoin="round"/>
</mask>
<g mask="url(#mask0_444_498)">
<path d="M-0.400024 -0.399994H28.4V28.4H-0.400024V-0.399994Z" fill="#ABBAC1"/>
</g>
</svg>
