<svg width="26" height="24" viewBox="0 0 26 24" fill="none" xmlns="http://www.w3.org/2000/svg">
<path d="M18.6 10.8C20.3504 10.8 22.0292 11.4954 23.2669 12.7331C24.5046 13.9708 25.2 15.6496 25.2 17.4C25.2 19.1504 24.5046 20.8292 23.2669 22.0669C22.0292 23.3046 20.3504 24 18.6 24C16.8496 24 15.1708 23.3046 13.9331 22.0669C12.6954 20.8292 12 19.1504 12 17.4C12 15.6496 12.6954 13.9708 13.9331 12.7331C15.1708 11.4954 16.8496 10.8 18.6 10.8ZM18.6 13.2L18.492 13.2084C18.3721 13.2303 18.2617 13.2882 18.1756 13.3744C18.0894 13.4605 18.0315 13.5709 18.0096 13.6908L18 13.8V16.8H14.9976L14.8896 16.8096C14.7697 16.8315 14.6593 16.8894 14.5732 16.9756C14.487 17.0617 14.4291 17.1721 14.4072 17.292L14.3976 17.4L14.4072 17.508C14.4291 17.6279 14.487 17.7383 14.5732 17.8244C14.6593 17.9106 14.7697 17.9685 14.8896 17.9904L14.9976 18H18V21.0036L18.0096 21.1116C18.0315 21.2315 18.0894 21.3419 18.1756 21.428C18.2617 21.5142 18.3721 21.5721 18.492 21.594L18.6 21.6036L18.708 21.594C18.8279 21.5721 18.9383 21.5142 19.0244 21.428C19.1106 21.3419 19.1685 21.2315 19.1904 21.1116L19.2 21.0036V18L22.2048 18.0012L22.3128 17.9916C22.4327 17.9697 22.5431 17.9118 22.6292 17.8256C22.7154 17.7395 22.7733 17.6291 22.7952 17.5092L22.8048 17.4012L22.7952 17.2932C22.7732 17.1731 22.7152 17.0627 22.6287 16.9765C22.5423 16.8903 22.4317 16.8325 22.3116 16.8108L22.2036 16.8012H19.2V13.8012L19.1904 13.6932C19.1687 13.5731 19.1109 13.4625 19.0247 13.3761C18.9385 13.2896 18.828 13.2316 18.708 13.2096L18.6 13.2ZM14.7048 8.4C15.1798 8.40009 15.6464 8.52551 16.0575 8.7636C16.4686 9.00168 16.8095 9.344 17.046 9.756C15.8052 10.0088 14.6446 10.5599 13.6644 11.3615C12.6842 12.1632 11.9138 13.1914 11.4198 14.3573C10.9258 15.5232 10.723 16.7919 10.8289 18.0537C10.9348 19.3156 11.3462 20.5327 12.0276 21.6L12.0036 21.5988C11.2943 21.599 10.5918 21.4594 9.93646 21.188C9.28109 20.9166 8.6856 20.5188 8.18402 20.0172C7.68244 19.5156 7.2846 18.9201 7.01322 18.2647C6.74184 17.6094 6.60224 16.9069 6.6024 16.1976V11.1C6.6024 10.3839 6.88686 9.69716 7.39321 9.19081C7.89956 8.68446 8.58632 8.4 9.3024 8.4H14.7048ZM6.4872 8.4C5.85178 9.0612 5.47053 9.92572 5.4108 10.8408L5.4024 11.1V16.1988C5.4024 17.2152 5.6316 18.1776 6.042 19.0368C5.6452 19.1448 5.2312 19.1992 4.8 19.2C4.16955 19.2 3.54528 19.0758 2.96284 18.8345C2.3804 18.5932 1.8512 18.2395 1.40546 17.7937C0.959726 17.3478 0.606186 16.8186 0.365034 16.236C0.123882 15.6535 -0.000157461 15.0292 1.50014e-07 14.3988V11.1C-8.38966e-05 10.4158 0.259555 9.75718 0.726443 9.2571C1.19333 8.75702 1.83265 8.45283 2.5152 8.406L2.7 8.4H6.4872ZM21.3 8.4C22.0161 8.4 22.7028 8.68446 23.2092 9.19081C23.7155 9.69716 24 10.3839 24 11.1V11.772C22.5491 10.3762 20.6133 9.59764 18.6 9.6L18.3084 9.606C18.1212 9.15908 17.8536 8.75031 17.5188 8.4H21.3ZM19.8 1.2C20.5956 1.2 21.3587 1.51607 21.9213 2.07868C22.4839 2.64129 22.8 3.40435 22.8 4.2C22.8 4.99565 22.4839 5.75871 21.9213 6.32132C21.3587 6.88393 20.5956 7.2 19.8 7.2C19.0043 7.2 18.2413 6.88393 17.6787 6.32132C17.1161 5.75871 16.8 4.99565 16.8 4.2C16.8 3.40435 17.1161 2.64129 17.6787 2.07868C18.2413 1.51607 19.0043 1.2 19.8 1.2ZM12 0C12.9548 0 13.8705 0.379285 14.5456 1.05442C15.2207 1.72955 15.6 2.64522 15.6 3.6C15.6 4.55478 15.2207 5.47045 14.5456 6.14559C13.8705 6.82072 12.9548 7.2 12 7.2C11.0452 7.2 10.1295 6.82072 9.45441 6.14559C8.77928 5.47045 8.4 4.55478 8.4 3.6C8.4 2.64522 8.77928 1.72955 9.45441 1.05442C10.1295 0.379285 11.0452 0 12 0ZM4.2 1.2C4.99565 1.2 5.75871 1.51607 6.32132 2.07868C6.88393 2.64129 7.2 3.40435 7.2 4.2C7.2 4.99565 6.88393 5.75871 6.32132 6.32132C5.75871 6.88393 4.99565 7.2 4.2 7.2C3.40435 7.2 2.64129 6.88393 2.07868 6.32132C1.51607 5.75871 1.2 4.99565 1.2 4.2C1.2 3.40435 1.51607 2.64129 2.07868 2.07868C2.64129 1.51607 3.40435 1.2 4.2 1.2Z" fill="#ABBAC1"/>
</svg>
