<svg width="10" height="12" viewBox="0 0 10 12" fill="none" xmlns="http://www.w3.org/2000/svg">
<path d="M8 4C8.30311 4 8.59379 4.12041 8.80812 4.33474C9.02245 4.54906 9.14286 4.83975 9.14286 5.14286V10.8571C9.14286 11.1602 9.02245 11.4509 8.80812 11.6653C8.59379 11.8796 8.30311 12 8 12H1.14286C0.839753 12 0.549062 11.8796 0.334735 11.6653C0.120408 11.4509 0 11.1602 0 10.8571V5.14286C0 4.83975 0.120408 4.54906 0.334735 4.33474C0.549062 4.12041 0.839753 4 1.14286 4H6.28571V2.85714C6.28571 2.40249 6.1051 1.96645 5.78361 1.64496C5.46212 1.32347 5.02609 1.14286 4.57143 1.14286C4.11677 1.14286 3.68074 1.32347 3.35925 1.64496C3.03775 1.96645 2.85714 2.40249 2.85714 2.85714H1.71429C1.71429 2.09938 2.01531 1.37266 2.55112 0.836838C3.08694 0.30102 3.81367 0 4.57143 0C4.94663 0 5.31817 0.0739022 5.66481 0.217487C6.01145 0.361072 6.32642 0.571528 6.59173 0.836838C6.85704 1.10215 7.0675 1.41712 7.21108 1.76376C7.35467 2.11041 7.42857 2.48194 7.42857 2.85714V4H8ZM4.57143 9.14286C4.87453 9.14286 5.16522 9.02245 5.37955 8.80812C5.59388 8.59379 5.71429 8.30311 5.71429 8C5.71429 7.6969 5.59388 7.40621 5.37955 7.19188C5.16522 6.97755 4.87453 6.85714 4.57143 6.85714C4.26832 6.85714 3.97763 6.97755 3.76331 7.19188C3.54898 7.40621 3.42857 7.6969 3.42857 8C3.42857 8.30311 3.54898 8.59379 3.76331 8.80812C3.97763 9.02245 4.26832 9.14286 4.57143 9.14286Z" fill="#BFAADA"/>
</svg>
